<?xml version="1.0" standalone="no"?>
<!DOCTYPE svg PUBLIC "-//W3C//DTD SVG 20010904//EN"
 "http://www.w3.org/TR/2001/REC-SVG-20010904/DTD/svg10.dtd">
<svg version="1.0" xmlns="http://www.w3.org/2000/svg"
 width="2240.000000pt" height="800.000000pt" viewBox="0 0 2240.000000 800.000000"
 preserveAspectRatio="xMidYMid meet">
<metadata>
Created by potrace 1.16, written by Peter Selinger 2001-2019
</metadata>
<g transform="translate(0.000000,800.000000) scale(0.100000,-0.100000)"
fill="#000000" stroke="none">
<path d="M3505 7590 c-98 -8 -123 -11 -315 -45 -306 -53 -745 -204 -1000 -343
-149 -81 -184 -101 -270 -155 -814 -514 -1411 -1378 -1599 -2314 -56 -281 -66
-389 -66 -728 0 -385 19 -556 100 -883 258 -1052 1007 -1951 1997 -2400 371
-168 726 -265 1122 -307 125 -13 412 -15 2066 -15 l1920 0 0 1803 c0 1783 -4
2038 -35 2272 -103 784 -461 1509 -1026 2074 -561 562 -1272 913 -2079 1027
-121 17 -657 26 -815 14z m2000 -1499 c234 -79 395 -238 473 -468 l27 -78 3
-1510 c3 -1686 6 -1596 -67 -1750 -73 -153 -180 -263 -326 -336 -161 -80 -12
-73 -1695 -76 -1713 -4 -1594 -9 -1770 79 -87 43 -118 66 -180 128 -87 88
-139 172 -178 285 l-27 80 -3 1515 c-3 1658 -5 1592 55 1734 65 156 214 304
373 371 133 56 62 54 1715 52 l1530 -2 70 -24z"/>
<path d="M2320 6064 c-81 -17 -209 -80 -275 -134 -111 -93 -202 -240 -230
-375 -22 -105 -22 -3015 0 -3120 41 -197 196 -382 392 -469 133 -58 68 -56
1678 -56 1657 0 1552 -4 1710 74 161 80 281 215 340 386 l30 85 3 1505 c3
1690 7 1591 -71 1750 -58 120 -177 239 -297 298 -153 76 -51 72 -1720 71
-1240 0 -1506 -3 -1560 -15z m1860 -818 c156 -25 250 -65 354 -148 133 -107
205 -249 222 -434 13 -152 -59 -337 -176 -454 -70 -69 -160 -124 -222 -135
-21 -4 -38 -10 -38 -14 0 -3 36 -14 80 -24 138 -31 277 -118 363 -225 76 -96
117 -232 117 -389 0 -387 -231 -635 -650 -698 -74 -12 -218 -15 -652 -15
l-558 0 0 1275 0 1275 538 0 c411 0 557 -3 622 -14z"/>
<path d="M3350 4564 l0 -407 323 6 c354 7 425 15 534 66 74 35 150 107 180
171 91 196 21 433 -153 515 -102 48 -166 55 -540 55 l-344 0 0 -406z"/>
<path d="M3350 3441 l0 -441 380 0 c308 0 396 3 458 16 249 51 377 215 359
462 -11 156 -79 263 -210 327 -139 67 -149 69 -589 73 l-398 3 0 -440z"/>
<path d="M16290 2325 l0 -1925 340 0 340 0 0 1925 0 1925 -340 0 -340 0 0
-1925z"/>
<path d="M17430 3930 l0 -320 345 0 345 0 0 320 0 320 -345 0 -345 0 0 -320z"/>
<path d="M7720 2185 l0 -1785 683 0 c707 0 779 4 907 44 272 86 424 282 486
629 20 113 23 434 5 552 -40 261 -126 411 -292 508 -35 21 -95 47 -132 58 -37
12 -66 24 -62 27 3 3 36 18 75 32 273 107 392 352 392 810 -1 337 -65 535
-226 695 -123 121 -251 177 -471 204 -57 7 -324 11 -727 11 l-638 0 0 -1785z
m1165 1134 c33 -6 72 -17 87 -25 72 -37 101 -136 102 -354 1 -179 -14 -270
-54 -333 -49 -78 -127 -97 -407 -97 l-183 0 0 410 0 410 198 0 c109 0 225 -5
257 -11z m48 -1448 c21 -7 56 -28 78 -48 58 -52 70 -104 76 -313 7 -213 -6
-319 -47 -383 -51 -80 -120 -96 -417 -97 l-193 0 0 431 0 431 233 -5 c138 -2
247 -9 270 -16z"/>
<path d="M14890 3425 l0 -385 -165 0 -165 0 0 -280 0 -280 165 0 165 0 0
-1040 0 -1040 340 0 340 0 0 1040 0 1040 210 0 210 0 0 280 0 280 -210 0 -210
0 0 385 0 385 -340 0 -340 0 0 -385z"/>
<path d="M21070 3425 l0 -385 -160 0 -160 0 0 -280 0 -280 160 0 160 0 0
-1040 0 -1040 340 0 340 0 0 1040 0 1040 210 0 210 0 0 280 0 280 -210 0 -210
0 0 385 0 385 -340 0 -340 0 0 -385z"/>
<path d="M10903 3080 c-480 -35 -657 -188 -718 -620 -28 -199 -38 -472 -32
-870 10 -676 51 -886 206 -1041 93 -93 244 -154 436 -178 114 -14 504 -14 615
0 212 26 342 78 440 178 174 176 217 447 207 1291 -9 718 -50 911 -230 1077
-115 106 -313 157 -647 167 -91 2 -215 1 -277 -4z m365 -592 c106 -52 115
-114 115 -763 -1 -522 -7 -628 -45 -705 -36 -71 -85 -91 -230 -91 -179 0 -220
25 -255 152 -16 58 -18 121 -18 639 0 522 2 581 18 640 22 79 38 105 78 125
80 42 257 43 337 3z"/>
<path d="M13165 3080 c-335 -23 -523 -110 -628 -290 -94 -161 -127 -442 -127
-1075 0 -775 47 -1019 226 -1186 87 -80 232 -135 424 -158 111 -14 501 -14
615 0 324 40 504 174 574 429 48 171 71 474 71 920 0 432 -23 738 -67 905 -54
206 -171 333 -363 398 -162 54 -440 76 -725 57z m359 -589 c27 -12 53 -33 65
-51 42 -70 46 -134 46 -730 0 -508 -2 -571 -18 -629 -35 -127 -76 -152 -255
-152 -100 0 -121 3 -161 23 -59 30 -87 84 -102 198 -15 115 -15 1026 0 1140
24 185 89 234 293 225 58 -2 102 -10 132 -24z"/>
<path d="M19740 3079 c-131 -16 -241 -58 -321 -124 -49 -41 -122 -142 -140
-192 -6 -18 -16 -33 -24 -33 -13 0 -17 25 -31 223 l-6 87 -319 0 -319 0 0
-1320 0 -1320 340 0 339 0 4 923 c4 999 3 991 58 1072 38 54 85 70 214 70 133
0 167 -14 196 -79 35 -79 39 -198 39 -1103 l0 -883 341 0 340 0 -4 1047 c-4
1127 -5 1138 -58 1303 -39 122 -120 229 -208 274 -90 47 -297 73 -441 55z"/>
<path d="M17430 1720 l0 -1320 340 0 340 0 0 1320 0 1320 -340 0 -340 0 0
-1320z"/>
</g>
</svg>
