<svg xmlns="http://www.w3.org/2000/svg" width="2986.667" height="1066.667" viewBox="0 0 2240 800">
  <path d="M350.5 41c-9.8.8-12.3 1.1-31.5 4.5-30.6 5.3-74.5 20.4-100 34.3-14.9 8.1-18.4 10.1-27 15.5-81.4 51.4-141.1 137.8-159.9 231.4-5.6 28.1-6.6 38.9-6.6 72.8 0 38.5 1.9 55.6 10 88.3 25.8 105.2 100.7 195.1 199.7 240 37.1 16.8 72.6 26.5 112.2 30.7 12.5 1.3 41.2 1.5 206.6 1.5h192V579.7c0-178.3-.4-203.8-3.5-227.2-10.3-78.4-46.1-150.9-102.6-207.4C583.8 88.9 512.7 53.8 432 42.4c-12.1-1.7-65.7-2.6-81.5-1.4zm200 149.9c23.4 7.9 39.5 23.8 47.3 46.8l2.7 7.8.3 151c.3 168.6.6 159.6-6.7 175-7.3 15.3-18 26.3-32.6 33.6-16.1 8-1.2 7.3-169.5 7.6-171.3.4-159.4.9-177-7.9-8.7-4.3-11.8-6.6-18-12.8-8.7-8.8-13.9-17.2-17.8-28.5l-2.7-8-.3-151.5c-.3-165.8-.5-159.2 5.5-173.4 6.5-15.6 21.4-30.4 37.3-37.1 13.3-5.6 6.2-5.4 171.5-5.2l153 .2 7 2.4z"/>
  <path d="M232 193.6c-8.1 1.7-20.9 8-27.5 13.4-11.1 9.3-20.2 24-23 37.5-2.2 10.5-2.2 301.5 0 312 4.1 19.7 19.6 38.2 39.2 46.9 13.3 5.8 6.8 5.6 167.8 5.6 165.7 0 155.2.4 171-7.4 16.1-8 28.1-21.5 34-38.6l3-8.5.3-150.5c.3-169 .7-159.1-7.1-175-5.8-12-17.7-23.9-29.7-29.8-15.3-7.6-5.1-7.2-172-7.1-124 0-150.6.3-156 1.5zm186 81.8c15.6 2.5 25 6.5 35.4 14.8 13.3 10.7 20.5 24.9 22.2 43.4 1.3 15.2-5.9 33.7-17.6 45.4-7 6.9-16 12.4-22.2 13.5-2.1.4-3.8 1-3.8 1.4 0 .3 3.6 1.4 8 2.4 13.8 3.1 27.7 11.8 36.3 22.5 7.6 9.6 11.7 23.2 11.7 38.9 0 38.7-23.1 63.5-65 69.8-7.4 1.2-21.8 1.5-65.2 1.5H302V274h53.8c41.1 0 55.7.3 62.2 1.4z"/>
  <path d="M335 343.6v40.7l32.3-.6c35.4-.7 42.5-1.5 53.4-6.6 7.4-3.5 15-10.7 18-17.1 9.1-19.6 2.1-43.3-15.3-51.5-10.2-4.8-16.6-5.5-54-5.5H335v40.6zM335 455.9V500h38c30.8 0 39.6-.3 45.8-1.6 24.9-5.1 37.7-21.5 35.9-46.2-1.1-15.6-7.9-26.3-21-32.7-13.9-6.7-14.9-6.9-58.9-7.3l-39.8-.3v44zM1629 567.5V760h68V375h-68v192.5zM1743 407v32h69v-64h-69v32zM772 581.5V760h68.3c70.7 0 77.9-.4 90.7-4.4 27.2-8.6 42.4-28.2 48.6-62.9 2-11.3 2.3-43.4.5-55.2-4-26.1-12.6-41.1-29.2-50.8-3.5-2.1-9.5-4.7-13.2-5.8-3.7-1.2-6.6-2.4-6.2-2.7.3-.3 3.6-1.8 7.5-3.2 27.3-10.7 39.2-35.2 39.2-81-.1-33.7-6.5-53.5-22.6-69.5-12.3-12.1-25.1-17.7-47.1-20.4-5.7-.7-32.4-1.1-72.7-1.1H772v178.5zm116.5-113.4c3.3.6 7.2 1.7 8.7 2.5 7.2 3.7 10.1 13.6 10.2 35.4.1 17.9-1.4 27-5.4 33.3-4.9 7.8-12.7 9.7-40.7 9.7H843v-82h19.8c10.9 0 22.5.5 25.7 1.1zm4.8 144.8c2.1.7 5.6 2.8 7.8 4.8 5.8 5.2 7 10.4 7.6 31.3.7 21.3-.6 31.9-4.7 38.3-5.1 8-12 9.6-41.7 9.7H843v-86.2l23.3.5c13.8.2 24.7.9 27 1.6zM1489 457.5V496h-33v56h33v208h68V552h42v-56h-42v-77h-68v38.5zM2107 457.5V496h-32v56h32v208h68V552h42v-56h-42v-77h-68v38.5zM1090.3 492c-48 3.5-65.7 18.8-71.8 62-2.8 19.9-3.8 47.2-3.2 87 1 67.6 5.1 88.6 20.6 104.1 9.3 9.3 24.4 15.4 43.6 17.8 11.4 1.4 50.4 1.4 61.5 0 21.2-2.6 34.2-7.8 44-17.8 17.4-17.6 21.7-44.7 20.7-129.1-.9-71.8-5-91.1-23-107.7-11.5-10.6-31.3-15.7-64.7-16.7-9.1-.2-21.5-.1-27.7.4zm36.5 59.2c10.6 5.2 11.5 11.4 11.5 76.3-.1 52.2-.7 62.8-4.5 70.5-3.6 7.1-8.5 9.1-23 9.1-17.9 0-22-2.5-25.5-15.2-1.6-5.8-1.8-12.1-1.8-63.9 0-52.2.2-58.1 1.8-64 2.2-7.9 3.8-10.5 7.8-12.5 8-4.2 25.7-4.3 33.7-.3zM1316.5 492c-33.5 2.3-52.3 11-62.8 29-9.4 16.1-12.7 44.2-12.7 107.5 0 77.5 4.7 101.9 22.6 118.6 8.7 8 23.2 13.5 42.4 15.8 11.1 1.4 50.1 1.4 61.5 0 32.4-4 50.4-17.4 57.4-42.9 4.8-17.1 7.1-47.4 7.1-92 0-43.2-2.3-73.8-6.7-90.5-5.4-20.6-17.1-33.3-36.3-39.8-16.2-5.4-44-7.6-72.5-5.7zm35.9 58.9c2.7 1.2 5.3 3.3 6.5 5.1 4.2 7 4.6 13.4 4.6 73 0 50.8-.2 57.1-1.8 62.9-3.5 12.7-7.6 15.2-25.5 15.2-10 0-12.1-.3-16.1-2.3-5.9-3-8.7-8.4-10.2-19.8-1.5-11.5-1.5-102.6 0-114 2.4-18.5 8.9-23.4 29.3-22.5 5.8.2 10.2 1 13.2 2.4zM1974 492.1c-13.1 1.6-24.1 5.8-32.1 12.4-4.9 4.1-12.2 14.2-14 19.2-.6 1.8-1.6 3.3-2.4 3.3-1.3 0-1.7-2.5-3.1-22.3l-.6-8.7H1858v264h67.9l.4-92.3c.4-99.9.3-99.1 5.8-107.2 3.8-5.4 8.5-7 21.4-7 13.3 0 16.7 1.4 19.6 7.9 3.5 7.9 3.9 19.8 3.9 110.3V760h68.1l-.4-104.7c-.4-112.7-.5-113.8-5.8-130.3-3.9-12.2-12-22.9-20.8-27.4-9-4.7-29.7-7.3-44.1-5.5zM1743 628v132h68V496h-68v132z"/>
</svg>
